<?xml version="1.0" encoding="UTF-8"?>
<!DOCTYPE svg PUBLIC "-//W3C//DTD SVG 1.1//EN" "http://www.w3.org/Graphics/SVG/1.1/DTD/svg11.dtd">
<!-- Creator: CorelDRAW 2020 (64-Bit) -->
<svg xmlns="http://www.w3.org/2000/svg" xml:space="preserve" width="524px" height="524px" version="1.1" style="shape-rendering:geometricPrecision; text-rendering:geometricPrecision; image-rendering:optimizeQuality; fill-rule:evenodd; clip-rule:evenodd"
viewBox="0 0 129.29 129.36"
 xmlns:xlink="http://www.w3.org/1999/xlink"
 xmlns:xodm="http://www.corel.com/coreldraw/odm/2003">
 <defs>
  <style type="text/css">
   <![CDATA[
    .fil0 {fill:#259A3F}
    .fil6 {fill:#299941}
    .fil2 {fill:#7F0C1C}
    .fil1 {fill:#BDBBBC}
    .fil5 {fill:#BEBABA}
    .fil3 {fill:#FAFAFB}
    .fil4 {fill:#FDFDFD}
   ]]>
  </style>
 </defs>
 <g id="Katman_x0020_1">
  <metadata id="CorelCorpID_0Corel-Layer"/>
  <g id="_2396625874672">
   <path class="fil0" d="M70.13 114.51l0.34 4.47c0.3,0.06 0.45,-0.01 0.69,0l0.17 0.03c0.02,0 0.04,0.01 0.06,0.02l0.13 1.53 -0.91 0.07 0.09 1.37c-0.39,0.05 -1.49,0.17 -1.81,0.11l-0.09 -1.34 -3.75 0.28c-0.03,-0.46 -0.08,-0.88 -0.11,-1.34 -0.03,-0.51 0.21,-0.68 0.46,-1.03l2.5 -3.47c0.47,-0.64 0.29,-0.6 0.84,-0.64 0.34,-0.03 1.12,-0.12 1.39,-0.06zm-12.91 5.77l1.93 -0.07 0.08 0.15c0.09,0.23 0.1,0.42 0.34,0.58 0.9,0.56 1.54,-0.8 1.54,-1.8 -0.54,0.23 -0.55,0.5 -1.36,0.53 -1.9,0.09 -2.9,-1.75 -2.38,-3.31 0.85,-2.55 4.24,-1.89 5.15,-0.8 0.66,0.79 0.87,1.81 0.75,3.16 -0.1,1.16 -0.39,2.2 -1.08,2.84 -1.13,1.05 -3.35,0.99 -4.38,0.02 -0.21,-0.2 -0.71,-0.85 -0.59,-1.3zm20.51 -3.58c0.59,0.34 0.77,0.2 1.19,0.82 0.31,0.44 0.45,1.06 0.32,1.68 -0.25,1.14 -1.19,1.63 -2.3,1.9 -1.25,0.3 -2.46,0.35 -3.21,-0.61 -0.76,-0.99 -0.63,-2.33 0.33,-2.92 -0.27,-0.24 -0.65,-0.19 -1.04,-0.77 -0.26,-0.4 -0.39,-0.96 -0.23,-1.49 0.69,-2.2 5.67,-2.62 5.49,0.13 -0.04,0.72 -0.39,0.8 -0.55,1.26zm-24.53 4.68l-1.97 -0.56c0,-0.09 -0.01,-0.06 0,-0.17 0.01,-0.05 0.06,-0.27 0.07,-0.33l0.98 -4.15c-0.65,0.1 -0.99,0.45 -2.31,0.47l0.36 -1.61c1.39,-0.27 2.11,-0.32 2.92,-1.33 0.24,-0.01 1.51,0.28 1.68,0.37l-1.73 7.31zm68.25 -40.5c0.3,0.04 1.54,0.72 1.8,0.86l-0.91 1.81c-0.3,-0.05 -1.57,-0.73 -1.78,-0.9l0.89 -1.77zm-109 1.58c-0.18,0.47 -0.65,0.59 -0.57,1.5 0.06,0.58 0.4,1.05 0.72,1.32 0.87,0.77 2.23,0.17 3.06,-0.27 0.78,-0.42 1.92,-1.17 1.52,-2.47 -0.55,-1.76 -1.99,-1.27 -2.71,-1.23l-0.5 -2.65c1.1,-0.31 2.18,-0.23 3.09,0.26 1.09,0.57 1.26,1.2 1.82,1.91 -0.08,-0.7 -0.15,-1.2 0.39,-1.6 1.45,-1.08 2.94,1.72 3.05,2.92l-0.68 0.3c-0.34,-0.6 -0.62,-2.23 -1.46,-1.92 -0.71,0.39 0.3,1.36 0.43,1.76l-0.75 0.15 -0.51 -0.62c0.11,0.8 0.62,1.37 0.25,2.8 -0.64,2.46 -3.8,4.23 -6.15,3.86 -2.57,-0.39 -4.42,-3.88 -3.93,-5.94 0.15,-0.62 0.76,-1.79 1.24,-2.07 0.18,0.12 0.1,0.06 0.24,0.24l1.45 1.75zm98.83 -4.13c0.06,-0.31 1.06,-2.08 1.29,-2.59 0.44,0.07 1.82,0.88 2.25,1.1 0.72,0.36 1.41,0.73 2.12,1.09 0.53,0.28 4,2.03 4.21,2.24 -0.09,0.31 -1.18,2.4 -1.33,2.57 -0.31,-0.02 -3.77,-1.88 -4.33,-2.17 -0.53,-0.28 -3.97,-2.01 -4.21,-2.24zm-104.4 -8.42c1.71,-0.68 5.14,-2.36 7.05,-3.22 0.37,-0.16 2.07,-1.05 2.35,-0.97l0.19 3.04 -1.53 0.59 0.23 3.37 1.63 0.37 0.19 3.04 -9.89 -2.93 -0.22 -3.29zm13.73 -5.09c0,-7.82 1.93,-15.05 5.67,-21.72 1.5,-2.69 2.63,-4.17 4.47,-6.48 0.87,-1.09 2.86,-3.2 3.99,-4.21 0.51,-0.46 0.95,-0.87 1.45,-1.3 7.52,-6.49 17.91,-10.41 28.21,-10.41 7.17,0 12.86,1.45 18.56,4 6.11,2.73 11.93,7.36 15.95,12.43 0.15,0.19 0.43,0.49 0.62,0.76 0.36,0.52 0.75,1.03 1.16,1.6 3.05,4.22 5.48,9.69 6.74,14.97 1.52,6.4 1.68,14.17 -0.02,20.59 -1,3.76 -1.9,6.44 -3.69,9.87 -1.91,3.65 -3.51,5.87 -6.11,8.92 -0.64,0.76 -1.31,1.4 -2,2.12 -2.29,2.41 -6.2,5.33 -9.28,7.05 -6.78,3.78 -13.62,5.71 -22.26,5.71 -8.43,0 -16.55,-2.73 -23.14,-6.91 -0.55,-0.34 -1.09,-0.73 -1.65,-1.1 -1.11,-0.74 -2.05,-1.53 -3.08,-2.38 -3,-2.46 -5.48,-5.4 -7.74,-8.51 -1.32,-1.83 -3.05,-4.91 -3.97,-6.99 -2.32,-5.28 -3.88,-11.2 -3.88,-18.01zm98.59 9.34c0,-0.68 0.09,-1.36 0.14,-2 0.12,-1.41 0.08,-0.45 1,-1.05 0.35,-0.22 0.61,-0.86 0.53,-1.5 -0.07,-0.55 -0.71,-0.94 -1.14,-0.41 -0.21,0.26 -0.9,2.14 -1.27,2.85 -1.36,2.63 -3.87,2.28 -5.12,0.69 -1.29,-1.64 -0.65,-5.15 0.4,-6.39 0.59,-0.68 1.71,-1.19 2.89,-1.09 0.07,0.31 -0.13,2.36 -0.18,2.82 -0.98,0.11 -1.89,0.31 -1.89,1.79 0,1.19 1.19,1.61 1.88,0.43 0.44,-0.77 0.66,-1.67 1.16,-2.51 1.35,-2.31 3.56,-1.93 4.52,-0.55 0.58,0.84 0.65,1.8 0.53,3.03 -0.22,2.18 -1.03,3.95 -3.45,3.89zm-109.26 -14.58c-0.33,-0.39 -0.75,-0.76 -1.13,-1.14 -0.36,-0.37 -0.73,-0.73 -1.16,-1.14 -0.33,-0.31 -0.38,-0.26 -0.25,-0.81 0.08,-0.31 0.15,-0.58 0.23,-0.89l0.53 -1.8 1.7 1.89c0.64,0.68 1.15,1.26 1.72,1.88 1.23,1.33 0.75,1.08 2.18,1.43 0.61,0.15 2.4,0.52 2.82,0.72l-0.71 2.85c-0.42,0.01 -2.22,-0.52 -2.74,-0.64 -1.57,-0.38 -1.18,-0.26 -2.61,0.23l-4.95 1.78 0.8 -3.18c0.58,-0.36 3.22,-0.87 3.57,-1.18zm112.17 -5.17l0.56 7.97 -2.04 0.13 -0.36 -4.97 -1.53 0.11 0.3 4.62c-0.48,0.04 -1.51,0.17 -1.94,0.1l-0.33 -4.57 -1.9 0.14 0.37 5.13c-0.61,0.02 -1.6,0.18 -2.18,0.11 -0.08,-0.28 -0.6,-7.83 -0.56,-8.09l9.61 -0.68zm-113.73 -5.6c0.63,0.07 1.73,0.48 2.38,0.67 2.23,0.65 4.72,1.49 6.87,2.04 -0.02,0.27 -0.73,2.67 -0.85,2.88l-9.24 -2.77 0.84 -2.82zm101.9 -1.56c0.41,-0.2 2.35,-0.47 2.98,-0.59 1.37,-0.26 0.77,-0.03 2.19,-1.36 1.1,-1.03 2.46,-2.49 3.58,-3.48 0.16,0.23 0.6,2.75 0.62,3.2 -0.55,0.56 -2.5,2.13 -2.76,2.49 0.18,0.16 2.64,1.04 3.1,1.2 0.45,0.16 0.41,0.13 0.49,0.62 0.15,0.89 0.39,1.89 0.48,2.72 -0.42,-0.08 -3.99,-1.68 -4.74,-1.99 -1.6,-0.68 -1.07,-0.69 -2.59,-0.41 -0.71,0.12 -2.23,0.5 -2.85,0.49l-0.5 -2.89zm-100.79 -2.4c0.06,-0.39 1.18,-2.66 1.41,-3.16 0.82,-1.79 1.91,-5.05 4.76,-3.61 1.2,0.61 1.57,1.53 1.43,3.1 0.32,-0.13 0.19,-0.14 0.5,-0.35 0.82,-0.55 4.18,-0.59 4.62,-0.51l-1.42 3.02c-0.94,0.1 -1.93,0.12 -2.89,0.17 -1.09,0.07 -1.58,0.04 -1.95,0.98 0.22,0.22 1.4,0.7 1.75,0.86l1.7 0.82c0,-0.01 0.03,0.02 0.04,0.03l-1.09 2.41c-0.1,0.21 -0.05,0.16 -0.2,0.27 -0.29,-0.17 -0.77,-0.37 -1.1,-0.52l-5.42 -2.52c-0.75,-0.34 -1.48,-0.74 -2.14,-0.99zm96.89 -5.09c0.29,-0.15 0.75,-0.45 1.05,-0.63l6.16 -3.75c0.23,-0.14 0.78,-0.51 1.05,-0.58 0.22,0.27 1.45,2.3 1.51,2.55 -0.65,0.32 -3.2,1.95 -4.09,2.47 -0.67,0.4 -1.4,0.83 -2.04,1.24 -0.35,0.22 -0.64,0.39 -1.02,0.62 -0.37,0.22 -0.68,0.45 -1.05,0.61 -0.2,-0.14 -1.47,-2.24 -1.57,-2.53zm9.04 -4.91c0.19,-0.16 1.45,-0.93 1.66,-0.98l1.02 1.71c-0.1,0.12 -1.43,0.95 -1.68,1.03 -0.24,-0.42 -0.94,-1.49 -1,-1.76zm-15.43 -4.15c0.31,-0.15 5.96,-4.4 6.75,-4.98 0.33,-0.24 0.67,-0.58 1.01,-0.66 0.27,0.19 1.46,1.91 1.74,2.29 0.53,0.72 1.23,1.55 1.61,2.38 1.11,2.46 -0.6,4.29 -1.98,5.31 -1.73,1.28 -3.77,1.94 -5.67,0.18 -0.55,-0.51 -3.34,-4.13 -3.46,-4.52zm-82.6 -0.37c0.1,-0.18 2.08,-2.32 2.18,-2.35 0.25,-0.08 2.78,1.05 3.21,1.22l5.54 2.27c0.29,0.12 0.56,0.19 0.76,0.37 -0.13,0.25 -1.87,2.13 -2.06,2.23 -0.49,-0.11 -1.03,-0.58 -1.51,-0.62 -0.34,0.27 -0.81,0.82 -1.13,1.19 -0.35,0.4 -0.78,0.77 -1.09,1.2 0.06,0.46 0.66,1.02 0.73,1.51 -0.16,0.24 -1.84,2.07 -2.04,2.16l-4.59 -9.18zm6.43 -7.55c0.42,-0.31 2.05,-1.65 2.34,-1.81 0.42,0.7 3.73,4.62 4.45,5.69 0.5,-0.19 2.85,-2.31 3.69,-2.81 0.18,0.09 1.35,1.59 1.45,1.82l-4.5 3.58c-0.24,0.19 -1.2,1 -1.47,1.12 -0.05,-0.03 -5.84,-7.28 -5.96,-7.59zm73.26 -4.04c0.32,-0.35 0.51,-0.56 0.82,-0.88 0.2,-0.22 0.5,-0.59 0.8,-0.85 0.33,0.11 1.12,0.97 1.51,1.32 0.47,0.43 0.99,0.93 1.44,1.37 0.94,0.92 1.94,1.75 2.88,2.69 -0.08,0.23 -1.2,1.4 -1.37,1.51 -0.52,-0.33 -3.25,-3.15 -3.69,-3.35 -0.24,0.32 -0.87,0.83 -0.96,1.12 0.44,0.54 2.87,2.62 3.31,3.15 -0.21,0.24 -1.05,1.26 -1.35,1.39 -0.29,-0.19 -0.59,-0.54 -0.86,-0.79 -0.3,-0.27 -0.53,-0.49 -0.85,-0.79 -0.3,-0.29 -0.54,-0.5 -0.85,-0.79 -0.22,-0.22 -0.55,-0.63 -0.85,-0.7 -0.32,0.36 -1.07,1.06 -1.2,1.35 0.2,0.31 0.69,0.69 0.94,0.92l1.83 1.71c0.26,0.25 0.65,0.55 0.9,0.85 -0.07,0.22 -1.14,1.32 -1.42,1.58 -0.3,-0.11 -1.25,-1.1 -1.54,-1.36 -0.4,-0.37 -4.21,-3.89 -4.4,-4.16l4.91 -5.29zm-62 -4.09c0.44,-0.15 1.06,-0.55 1.56,-0.8 0.31,-0.16 0.54,-0.27 0.77,-0.41 0.69,-0.39 0.5,-0.39 2.04,1.05 0.99,0.92 6.04,5.25 6.18,5.54 -0.4,0.29 -2.05,1.05 -2.67,1.43 -0.46,-0.21 -0.82,-0.88 -1.26,-1.14l-2.96 1.55 0.28 1.64c-0.18,0.14 -2.36,1.3 -2.62,1.38 -0.12,-0.22 -1.27,-9.3 -1.32,-10.24zm48.52 5.12c0.1,-0.32 4.26,-7.89 4.54,-8.46 0.24,0.03 2.42,1.22 2.62,1.38 -0.12,0.57 -3.32,5.93 -3.39,6.43 0.52,0.37 1.43,0.78 2.02,1.11l2 1.11c-0.07,0.3 -0.81,1.51 -1.06,2.06 -0.31,-0.08 -6.48,-3.42 -6.73,-3.63zm-7.52 -12.29l7.75 1.92c-0.04,0.38 -0.37,1.72 -0.5,2.02l-4.84 -1.17 -0.34 1.47 4.44 1.09c-0.03,0.52 -0.3,1.37 -0.44,1.9 -0.51,-0.01 -3.65,-0.89 -4.47,-1.06 -0.14,0.2 -0.44,1.47 -0.45,1.79 0.43,0.26 4.1,1.07 4.94,1.29l-0.51 2.12 -7.92 -1.97 2.34 -9.4zm-22.58 -0.03l2.32 9.37c-0.79,0.17 -1.67,0.47 -2.47,0.63 -0.3,0.06 -0.36,-0.05 -0.53,-0.2 -0.52,-0.49 -4.25,-3.84 -4.49,-3.96l1.25 5.09 -2.69 0.64c-0.14,-0.26 -2.34,-9.23 -2.31,-9.37l2.48 -0.62c0.29,-0.03 0.3,0.06 0.49,0.25 0.84,0.82 2.62,2.32 3.61,3.21 0.2,0.18 0.6,0.61 0.86,0.68l-1.24 -5.06 2.72 -0.66zm8.97 -0.89c1.58,-0.02 5.81,-0.43 6.98,-0.04 1.66,0.57 1.93,2.61 1.13,3.56 -0.19,0.23 -0.75,0.67 -1.03,0.73 1.14,0.27 1.92,0.85 2.06,2.01 0.16,1.3 -0.43,2.26 -1.32,2.74 -1.06,0.56 -5.89,0.65 -7.47,0.67 -0.06,-1.06 -0.45,-9.31 -0.35,-9.67zm-0.7 -5.24c-2.91,0.25 -4.05,0.2 -7.18,0.71 -2.23,0.37 -4.45,0.84 -6.54,1.39 -7.9,2.12 -14.91,5.64 -21.34,10.39 -2.18,1.61 -5,3.99 -6.91,5.95 -5.95,6.11 -10.64,12.76 -13.91,20.85 -3.28,8.07 -5.08,16.87 -4.68,26.97 0.51,12.51 5.06,25.29 12.52,35.06l1.72 2.22c0.57,0.71 1.31,1.52 1.85,2.15 1.44,1.67 2.44,2.55 3.92,4.01 0.36,0.36 0.68,0.65 1.02,0.95 5.59,4.86 11.07,8.54 18.29,11.49 8.07,3.28 16.94,5.07 26.95,4.66 12.9,-0.52 25.46,-5.24 35.06,-12.5 6.3,-4.77 11.06,-9.85 15.35,-16.39 4.48,-6.82 7.53,-14.58 9.09,-22.64 0.85,-4.35 1.36,-9.99 1.05,-14.74 -0.6,-9.23 -2.43,-17.11 -6.47,-25.2 -2.88,-5.78 -5.49,-9.42 -9.59,-14.21 -3.12,-3.64 -8.75,-8.48 -12.82,-10.99 -3.75,-2.31 -6.14,-3.71 -10.41,-5.46 -3.92,-1.62 -7.76,-2.74 -12.24,-3.64 -3.94,-0.79 -10.71,-1.39 -14.73,-1.03z"/>
   <path class="fil1" d="M61.34 33.87c-0.24,-0.26 -0.75,-0.74 -1.05,-1.01 -1.48,-1.31 -3.68,-3.43 -5.23,-4.93 -0.44,-0.42 -1.84,-1.57 -2.09,-2 1.32,0.05 2.67,0.2 3.98,0.29 0.54,0.04 0.5,0 0.84,0.29l4.04 3.37c0.81,0.66 1.41,1.24 2.31,1.94 0.31,-0.09 1.92,-1.57 2.36,-1.95l3.47 -2.96c0.64,-0.55 0.53,-0.65 1.45,-0.63 1.38,0.03 2.78,0.08 4.17,0.08 -0.15,0.34 -4.56,3.99 -5.49,4.82 -0.37,0.33 -0.65,0.57 -1.09,0.94 -0.51,0.44 -1.69,1.6 -2.2,1.86 0.12,0.27 0.46,0.47 0.66,0.63 0.24,0.2 0.44,0.36 0.69,0.55 0.48,0.39 0.89,0.73 1.38,1.12l7.53 6.1c0.19,0.15 0.48,0.42 0.71,0.52 0.37,-0.18 0.86,-0.51 1.21,-0.74 0.38,-0.25 0.73,-0.47 1.16,-0.74 0.43,-0.29 2.63,-1.77 3,-1.82 0.58,-0.07 6.22,0.07 6.58,0.1 -0.28,0.3 -4.44,2.41 -4.77,2.59 -0.75,0.41 -4.39,2.25 -4.76,2.6 0.29,0.38 0.84,0.78 1.22,1.15 1.21,1.18 2.43,2.16 3.64,3.3 0.41,0.38 0.8,0.7 1.25,1.12l3.6 3.27c0.33,-0.08 1.62,-0.87 2.04,-1.1 0.72,-0.39 1.28,-0.71 1.98,-1.1 0.55,-0.3 0.64,-0.19 1.29,-0.16 0.72,0.05 3.67,0.16 4.26,0.3l0.11 0.04c-0.21,0.2 -1.66,0.89 -2.01,1.05 -0.61,0.3 -1.34,0.68 -1.96,0.99 -0.46,0.23 -3.58,1.7 -3.91,1.96 0.14,0.19 0.4,0.47 0.6,0.69 2.99,3.17 6.23,8.01 6.89,12.3l6.76 0.36c-0.7,0.4 -4.96,2.05 -5.86,2.41 -0.76,0.31 -0.86,0.16 -1.14,0.96 -1.47,4.34 -4.05,8.2 -7.05,11.57 -0.32,0.36 -1.9,1.85 -2.02,2.14 1.52,0.2 3.19,0.63 4.69,0.89 0.8,0.14 1.57,0.29 2.38,0.45 0.61,0.13 1.85,0.26 2.31,0.49 -0.14,0.13 -0.31,0.17 -0.48,0.23 -0.19,0.06 -0.34,0.11 -0.49,0.16 -0.95,0.31 -4.18,1.56 -4.83,1.44 -2.08,-0.42 -4.14,-0.98 -6.22,-1.33 -0.4,-0.07 -0.54,0.17 -0.81,0.42l-1.32 1.17c-0.22,0.2 -0.44,0.4 -0.67,0.59 -0.91,0.73 -1.78,1.6 -2.68,2.36 -0.9,0.75 -1.76,1.58 -2.69,2.36 -0.91,0.77 -1.79,1.63 -2.68,2.37 -0.72,0.59 -2.06,1.94 -2.69,2.32 -0.29,-0.17 -2.48,-2.03 -2.85,-2.41l-0.16 -0.17c0.25,-0.34 0.55,-0.66 0.78,-0.98 0.76,-1.07 1.36,-2.12 1.89,-3.36 0.58,-1.36 1.36,-3.95 1.47,-5.59 -0.49,0.1 -1.03,0.33 -1.52,0.5 -0.41,0.14 -0.89,0.23 -1.27,0.43 -0.08,0.04 -0.08,0.04 -0.13,0.08 -0.15,0.87 -0.19,1.62 -0.39,2.47 -0.36,1.48 -0.87,2.83 -1.55,4.15 -0.26,0.5 -0.74,1.37 -1.05,1.77l-9.42 -0.09c-0.67,-0.83 -1.56,-2.75 -1.95,-3.82 -1.01,-2.81 -0.62,-3.92 -0.86,-4.83l-4.68 -0.36c0.22,3.12 1.85,6.96 4.13,9.03 0.29,0.27 0.72,0.54 0.97,0.87 -0.28,0.49 -0.63,0.94 -0.91,1.38 -0.24,0.37 -0.76,1.09 -0.88,1.41 -0.4,-0.09 -2.45,-1.89 -2.82,-2.19l-8.11 -6.64c-0.86,-0.71 -1.64,-1.35 -2.7,-2.21 -0.8,-0.65 -0.61,-0.81 -1.67,-0.64l-4.24 0.68c-0.53,0.08 -0.57,0.15 -1.03,-0.06 -0.28,-0.13 -0.54,-0.24 -0.82,-0.35 -0.56,-0.25 -3.1,-1.28 -3.35,-1.5l7.57 -1.57c-0.35,-0.46 -1.57,-1.57 -2.09,-2.08 -2.76,-2.76 -5.12,-6.25 -6.58,-10.08 -0.63,-1.66 -0.37,-1.7 -1.1,-2.05 -0.78,-0.36 -5.88,-2.65 -6.28,-2.97l6.61 -0.31c0.18,-1.06 0.79,-2.6 1.18,-3.56 0.89,-2.21 2.01,-4.19 3.41,-6.03l2.13 -2.62c-0.32,-0.31 -5.42,-3.19 -5.95,-3.51 -0.35,-0.2 -1.82,-1.02 -1.95,-1.19l4.73 -0.27c0.65,-0.04 0.73,0.13 1.21,0.41l3.08 1.85c0.33,0.19 0.68,0.44 1.02,0.59 0.49,-0.31 2.09,-1.89 2.56,-2.33l2.53 -2.32c0.45,-0.4 4.84,-4.33 5.1,-4.7 -0.13,-0.17 -0.32,-0.27 -0.49,-0.39 -0.84,-0.59 -6.81,-4.76 -7.02,-5.1 1.08,-0.01 2.21,0.05 3.29,0.08 0.56,0.01 1.13,0.03 1.7,0.04 0.91,0.02 0.68,-0.04 1.24,0.4 0.7,0.55 1.12,0.94 1.86,1.48 0.59,0.44 1.23,1.09 1.89,1.49 0.46,-0.16 2.3,-1.81 2.84,-2.24l5.54 -4.5c0.41,-0.35 2.55,-1.99 2.72,-2.28zm-40.73 30.95c0,6.81 1.56,12.73 3.88,18.01 0.92,2.08 2.65,5.16 3.97,6.99 2.26,3.11 4.74,6.05 7.74,8.51 1.03,0.85 1.97,1.64 3.08,2.38 0.56,0.37 1.1,0.76 1.65,1.1 6.59,4.18 14.71,6.91 23.14,6.91 8.64,0 15.48,-1.93 22.26,-5.71 3.08,-1.72 6.99,-4.64 9.28,-7.05 0.69,-0.72 1.36,-1.36 2,-2.12 2.6,-3.05 4.2,-5.27 6.11,-8.92 1.79,-3.43 2.69,-6.11 3.69,-9.87 1.7,-6.42 1.54,-14.19 0.02,-20.59 -1.26,-5.28 -3.69,-10.75 -6.74,-14.97 -0.41,-0.57 -0.8,-1.08 -1.16,-1.6 -0.19,-0.27 -0.47,-0.57 -0.62,-0.76 -4.02,-5.07 -9.84,-9.7 -15.95,-12.43 -5.7,-2.55 -11.39,-4 -18.56,-4 -10.3,0 -20.69,3.92 -28.21,10.41 -0.5,0.43 -0.94,0.84 -1.45,1.3 -1.13,1.01 -3.12,3.12 -3.99,4.21 -1.84,2.31 -2.97,3.79 -4.47,6.48 -3.74,6.67 -5.67,13.9 -5.67,21.72z"/>
   <path class="fil2" d="M67.09 95.74l-0.31 -1.41c-0.01,-0.51 0.09,-1.04 0.26,-1.49 0.24,-0.69 1.09,-1.5 1.76,-1.72 0.41,2.07 -0.43,3.8 -1.71,4.62zm-7.08 -4.62c1.73,0.87 2.31,2.29 1.72,4.62 -0.22,-0.07 -0.22,-0.08 -0.5,-0.33 -0.74,-0.69 -1.29,-1.71 -1.36,-2.78 -0.02,-0.32 -0.03,-1.09 0.09,-1.42l0.05 -0.09zm17.09 -3.5c0.46,-0.13 4.52,0.23 5.38,0.26 -0.1,0.27 -0.2,0.31 -0.39,0.47l-4.33 4.12c-0.32,0.29 -1.34,1.36 -1.59,1.46l0.93 -6.31zm-27.71 0.15l0.53 3.87c-0.32,-0.18 -0.78,-0.66 -1.1,-0.94 -0.39,-0.33 -0.72,-0.65 -1.09,-0.94 -0.28,-0.22 -1.9,-1.65 -2.07,-1.9l3.73 -0.09zm8.81 -1.3c0.53,-0.93 1.7,-2.29 2.47,-2.95 0.79,-0.66 2.43,-1.82 3.42,-2.03 0.8,-0.17 2.97,1.09 3.72,1.69 0.76,0.6 2.21,2.22 2.39,3.09 -0.36,0.31 -1.19,0.75 -1.99,1.45 -2.12,1.85 -2.91,3.64 -3.56,6.2l-0.12 0.3c-0.4,-0.83 -0.42,-1.16 -1.1,-2.46 -1.65,-3.15 -5.04,-5.03 -5.23,-5.29zm14.14 -7.29c0.48,0.34 1.44,1.57 1.87,2.4 0.51,1.01 0.86,2.16 0.72,3.5 -0.22,0.1 -2.72,0.72 -3.04,0.74 -0.41,-3.55 -2.98,-4.69 -3.43,-5.28l3.88 -1.36zm-20.78 5.95c0.02,-0.79 0.76,-2.67 1.11,-3.39 0.49,-1.03 1.09,-1.86 1.8,-2.65 0.59,-0.66 0.49,-0.62 1.48,-0.31 1.66,0.53 3.5,1.04 5.1,1.59l-1.57 1.1c-1.95,1.51 -2.43,2.55 -3.49,4.52l-4.43 -0.86zm23.73 -6.27c0.06,-0.05 0,-0.03 0.16,-0.1l8.9 -2.25c0.6,-0.15 2.51,-0.71 2.98,-0.71 0.61,2.92 1.22,5.74 -0.81,8.46 -0.22,0.3 -0.36,0.45 -0.61,0.69 -0.22,0.21 -0.38,0.52 -0.78,0.54 -1.52,0.09 -5.36,-0.31 -7.52,-0.23 -0.26,-1.32 0.14,-1.55 -0.71,-3.69 -0.52,-1.32 -1,-1.74 -1.61,-2.71zm-32.47 6.68c-0.5,-0.62 -0.97,-1.01 -1.46,-1.94 -1.31,-2.53 -0.96,-5.88 -0.02,-8.41l10.83 2.98c-0.13,0.21 -0.34,0.45 -0.51,0.67 -0.55,0.72 -1.02,1.5 -1.41,2.32 -0.93,1.97 -0.65,2.53 -0.97,3.96l-6.46 0.42zm20.66 -12.72l5.89 4.38c-0.66,0.33 -2.03,0.71 -2.83,0.98 -0.46,0.16 -0.96,0.32 -1.42,0.48 -0.59,0.19 -0.75,0.4 -1.38,0.21 -0.68,-0.2 -5.54,-1.58 -5.76,-1.72l5.5 -4.33zm32.1 0.44l-4.36 6.83c-0.12,-0.19 -1.19,-4.9 -1.17,-5.28l5.53 -1.55zm-58.46 6.85c-0.22,-0.22 -1.96,-3 -2.29,-3.55 -0.39,-0.62 -2.14,-3.23 -2.26,-3.64l6.22 1.67 -1.67 5.52zm38.96 -15.09c0.32,-0.2 1.13,-0.76 1.47,-0.87 0.2,0.22 0.92,0.69 1.23,0.92 1.32,1.01 2.23,1.84 3.36,3 1.02,1.04 3.08,3.63 3.53,5.02 -0.35,0.23 -0.98,0.31 -1.41,0.44 -0.48,0.14 -0.9,0.26 -1.39,0.39 -0.9,0.26 -1.89,0.54 -2.8,0.8 -1.87,0.53 -3.71,1.04 -5.57,1.57 -0.45,0.13 -0.97,0.31 -1.44,0.42 -0.34,0.08 -0.33,-0.03 -0.58,-0.23l-4.44 -3.56c-0.15,-0.12 -1.82,-1.41 -1.93,-1.6l9.97 -6.3zm-31.28 5.78c0.75,-0.75 5.27,-5.77 5.7,-6.08l9.96 6.4c-0.09,0.18 -4.66,4.3 -5.2,4.76 -0.34,0.3 -0.44,0.65 -1.01,0.47 -0.74,-0.23 -11.1,-3.24 -11.39,-3.46l1.94 -2.09zm-13.25 -0.8c0.05,-0.47 0.41,-1.38 0.57,-1.85 0.59,-1.77 1.37,-3.38 2.31,-4.97 0.76,-1.29 3.19,-4.59 4.33,-5.3 0.17,0.07 8.22,4.67 8.76,5.06l-2.22 2.13c-0.34,0.39 -0.75,0.78 -1.07,1.16 -1.57,1.84 -3.5,4.06 -4.56,6.35l-8.12 -2.58zm48.73 -7.41c0.2,-0.2 0.77,-0.51 1.06,-0.69 0.97,-0.6 7.14,-4.56 7.46,-4.6 2.65,2.22 5.04,5.58 6.35,8.91 0.38,0.95 1.01,2.9 1.07,4.02l-7.44 2.27c-0.89,-2.19 -3.2,-5.09 -4.84,-6.69 -1.13,-1.12 -1.87,-1.75 -3.06,-2.71 -0.22,-0.18 -0.44,-0.31 -0.6,-0.51zm-15.94 -7.1c0.26,0.08 2.23,1.5 2.54,1.74 0.96,0.71 7.16,4.92 7.42,5.25 -0.44,0.26 -0.94,0.63 -1.35,0.92l-6.78 4.7c-0.5,0.35 -0.89,0.64 -1.35,0.94 -0.4,0.27 -0.93,0.69 -1.34,0.9 -0.13,0.02 -8.34,-5.45 -9.17,-5.98 -0.19,-0.12 -0.43,-0.28 -0.67,-0.44 -0.21,-0.14 -0.48,-0.24 -0.59,-0.47l11.29 -7.56zm3.12 -1.68c0.24,-0.25 2.06,-1.39 2.49,-1.67 0.76,-0.48 7.06,-4.69 7.44,-4.83 0.19,0.09 0.97,0.8 1.22,1.01 0.39,0.35 0.78,0.67 1.17,1 0.75,0.64 6.88,5.83 6.99,6.07l-8.62 5.35c-0.29,0.17 -0.34,0.11 -0.6,-0.08 -2.43,-1.73 -5.32,-3.53 -7.75,-5.23 -0.42,-0.29 -0.76,-0.51 -1.18,-0.79 -0.26,-0.18 -0.96,-0.62 -1.16,-0.83zm-26.61 1.98c0.12,-0.26 3.52,-3.17 3.86,-3.45l5.84 -5.11c0.2,-0.17 0.42,-0.43 0.67,-0.52 0.42,0.26 0.9,0.63 1.24,0.87 0.46,0.32 0.79,0.56 1.23,0.87 0.86,0.62 1.61,1.17 2.41,1.72 0.53,0.37 4.52,3.26 4.86,3.4 -0.09,0.24 -0.06,0.19 -0.31,0.35l-5.13 3.59c-0.95,0.67 -1.77,1.24 -2.75,1.92l-2.73 1.89 -2.33 -1.38c-0.75,-0.45 -1.53,-0.94 -2.29,-1.39 -1.54,-0.9 -3.13,-1.96 -4.57,-2.76zm12.99 -11.3c0.09,-0.19 0.45,-0.43 0.62,-0.56l9.55 -7.75c0.28,0.13 1.04,0.8 1.35,1.06 0.91,0.72 9.15,7.23 9.28,7.54l-2.57 1.68c-0.84,0.57 -1.6,1.04 -2.52,1.68l-5.08 3.34c-0.12,0.01 -2.37,-1.51 -2.7,-1.73 -0.94,-0.64 -1.74,-1.14 -2.65,-1.75l-5.28 -3.51zm7.5 -10.62c-0.17,0.29 -2.31,1.93 -2.72,2.28l-5.54 4.5c-0.54,0.43 -2.38,2.08 -2.84,2.24 -0.66,-0.4 -1.3,-1.05 -1.89,-1.49 -0.74,-0.54 -1.16,-0.93 -1.86,-1.48 -0.56,-0.44 -0.33,-0.38 -1.24,-0.4 -0.57,-0.01 -1.14,-0.03 -1.7,-0.04 -1.08,-0.03 -2.21,-0.09 -3.29,-0.08 0.21,0.34 6.18,4.51 7.02,5.1 0.17,0.12 0.36,0.22 0.49,0.39 -0.26,0.37 -4.65,4.3 -5.1,4.7l-2.53 2.32c-0.47,0.44 -2.07,2.02 -2.56,2.33 -0.34,-0.15 -0.69,-0.4 -1.02,-0.59l-3.08 -1.85c-0.48,-0.28 -0.56,-0.45 -1.21,-0.41l-4.73 0.27c0.13,0.17 1.6,0.99 1.95,1.19 0.53,0.32 5.63,3.2 5.95,3.51l-2.13 2.62c-1.4,1.84 -2.52,3.82 -3.41,6.03 -0.39,0.96 -1,2.5 -1.18,3.56l-6.61 0.31c0.4,0.32 5.5,2.61 6.28,2.97 0.73,0.35 0.47,0.39 1.1,2.05 1.46,3.83 3.82,7.32 6.58,10.08 0.52,0.51 1.74,1.62 2.09,2.08l-7.57 1.57c0.25,0.22 2.79,1.25 3.35,1.5 0.28,0.11 0.54,0.22 0.82,0.35 0.46,0.21 0.5,0.14 1.03,0.06l4.24 -0.68c1.06,-0.17 0.87,-0.01 1.67,0.64 1.06,0.86 1.84,1.5 2.7,2.21l8.11 6.64c0.37,0.3 2.42,2.1 2.82,2.19 0.12,-0.32 0.64,-1.04 0.88,-1.41 0.28,-0.44 0.63,-0.89 0.91,-1.38 -0.25,-0.33 -0.68,-0.6 -0.97,-0.87 -2.28,-2.07 -3.91,-5.91 -4.13,-9.03l4.68 0.36c0.24,0.91 -0.15,2.02 0.86,4.83 0.39,1.07 1.28,2.99 1.95,3.82l9.42 0.09c0.31,-0.4 0.79,-1.27 1.05,-1.77 0.68,-1.32 1.19,-2.67 1.55,-4.15 0.2,-0.85 0.24,-1.6 0.39,-2.47 0.05,-0.04 0.05,-0.04 0.13,-0.08 0.38,-0.2 0.86,-0.29 1.27,-0.43 0.49,-0.17 1.03,-0.4 1.52,-0.5 -0.11,1.64 -0.89,4.23 -1.47,5.59 -0.53,1.24 -1.13,2.29 -1.89,3.36 -0.23,0.32 -0.53,0.64 -0.78,0.98l0.16 0.17c0.37,0.38 2.56,2.24 2.85,2.41 0.63,-0.38 1.97,-1.73 2.69,-2.32 0.89,-0.74 1.77,-1.6 2.68,-2.37 0.93,-0.78 1.79,-1.61 2.69,-2.36 0.9,-0.76 1.77,-1.63 2.68,-2.36 0.23,-0.19 0.45,-0.39 0.67,-0.59l1.32 -1.17c0.27,-0.25 0.41,-0.49 0.81,-0.42 2.08,0.35 4.14,0.91 6.22,1.33 0.65,0.12 3.88,-1.13 4.83,-1.44 0.15,-0.05 0.3,-0.1 0.49,-0.16 0.17,-0.06 0.34,-0.1 0.48,-0.23 -0.46,-0.23 -1.7,-0.36 -2.31,-0.49 -0.81,-0.16 -1.58,-0.31 -2.38,-0.45 -1.5,-0.26 -3.17,-0.69 -4.69,-0.89 0.12,-0.29 1.7,-1.78 2.02,-2.14 3,-3.37 5.58,-7.23 7.05,-11.57 0.28,-0.8 0.38,-0.65 1.14,-0.96 0.9,-0.36 5.16,-2.01 5.86,-2.41l-6.76 -0.36c-0.66,-4.29 -3.9,-9.13 -6.89,-12.3 -0.2,-0.22 -0.46,-0.5 -0.6,-0.69 0.33,-0.26 3.45,-1.73 3.91,-1.96 0.62,-0.31 1.35,-0.69 1.96,-0.99 0.35,-0.16 1.8,-0.85 2.01,-1.05l-0.11 -0.04c-0.59,-0.14 -3.54,-0.25 -4.26,-0.3 -0.65,-0.03 -0.74,-0.14 -1.29,0.16 -0.7,0.39 -1.26,0.71 -1.98,1.1 -0.42,0.23 -1.71,1.02 -2.04,1.1l-3.6 -3.27c-0.45,-0.42 -0.84,-0.74 -1.25,-1.12 -1.21,-1.14 -2.43,-2.12 -3.64,-3.3 -0.38,-0.37 -0.93,-0.77 -1.22,-1.15 0.37,-0.35 4.01,-2.19 4.76,-2.6 0.33,-0.18 4.49,-2.29 4.77,-2.59 -0.36,-0.03 -6,-0.17 -6.58,-0.1 -0.37,0.05 -2.57,1.53 -3,1.82 -0.43,0.27 -0.78,0.49 -1.16,0.74 -0.35,0.23 -0.84,0.56 -1.21,0.74 -0.23,-0.1 -0.52,-0.37 -0.71,-0.52l-7.53 -6.1c-0.49,-0.39 -0.9,-0.73 -1.38,-1.12 -0.25,-0.19 -0.45,-0.35 -0.69,-0.55 -0.2,-0.16 -0.54,-0.36 -0.66,-0.63 0.51,-0.26 1.69,-1.42 2.2,-1.86 0.44,-0.37 0.72,-0.61 1.09,-0.94 0.93,-0.83 5.34,-4.48 5.49,-4.82 -1.39,0 -2.79,-0.05 -4.17,-0.08 -0.92,-0.02 -0.81,0.08 -1.45,0.63l-3.47 2.96c-0.44,0.38 -2.05,1.86 -2.36,1.95 -0.9,-0.7 -1.5,-1.28 -2.31,-1.94l-4.04 -3.37c-0.34,-0.29 -0.3,-0.25 -0.84,-0.29 -1.31,-0.09 -2.66,-0.24 -3.98,-0.29 0.25,0.43 1.65,1.58 2.09,2 1.55,1.5 3.75,3.62 5.23,4.93 0.3,0.27 0.81,0.75 1.05,1.01z"/>
   <path class="fil3" d="M61.77 1.32c4.02,-0.36 10.79,0.24 14.73,1.03 4.48,0.9 8.32,2.02 12.24,3.64 4.27,1.75 6.66,3.15 10.41,5.46 4.07,2.51 9.7,7.35 12.82,10.99 4.1,4.79 6.71,8.43 9.59,14.21 4.04,8.09 5.87,15.97 6.47,25.2 0.31,4.75 -0.2,10.39 -1.05,14.74 -1.56,8.06 -4.61,15.82 -9.09,22.64 -4.29,6.54 -9.05,11.62 -15.35,16.39 -9.6,7.26 -22.16,11.98 -35.06,12.5 -10.01,0.41 -18.88,-1.38 -26.95,-4.66 -7.22,-2.95 -12.7,-6.63 -18.29,-11.49 -0.34,-0.3 -0.66,-0.59 -1.02,-0.95 -1.48,-1.46 -2.48,-2.34 -3.92,-4.01 -0.54,-0.63 -1.28,-1.44 -1.85,-2.15l-1.72 -2.22c-7.46,-9.77 -12.01,-22.55 -12.52,-35.06 -0.4,-10.1 1.4,-18.9 4.68,-26.97 3.27,-8.09 7.96,-14.74 13.91,-20.85 1.91,-1.96 4.73,-4.34 6.91,-5.95 6.43,-4.75 13.44,-8.27 21.34,-10.39 2.09,-0.55 4.31,-1.02 6.54,-1.39 3.13,-0.51 4.27,-0.46 7.18,-0.71zm1.78 -1.22c-0.31,0.07 -1.45,-0.05 -1.9,0.01l-1.9 0.12c-0.57,0.01 -1.29,0.14 -1.86,0.19 -1.44,0.12 -3,0.26 -4.4,0.6 -0.28,0.06 -0.58,0.08 -0.9,0.14 -1.36,0.28 -2.8,0.52 -4.14,0.92l-4.55 1.35c-0.27,0.1 -0.49,0.19 -0.77,0.28 -0.49,0.16 -0.97,0.33 -1.45,0.53l-1.46 0.57c-0.11,0.04 -0.25,0.08 -0.34,0.12l-2.64 1.17c-0.76,0.35 -3.35,1.62 -3.88,1.96 -0.61,0.39 -1.32,0.69 -1.9,1.11l-0.63 0.36c-0.22,0.13 -0.38,0.26 -0.6,0.38l-3.63 2.49c-0.01,0 -0.02,0.02 -0.03,0.03l-1.7 1.24c-0.2,0.15 -0.34,0.31 -0.54,0.45l-3.33 2.78c-0.09,0.09 -0.21,0.26 -0.24,0.28l-3.77 3.76c-0.42,0.35 -1.94,2.17 -2.39,2.75l-0.81 1.02c-0.69,0.71 -1.81,2.39 -2.44,3.34 -0.39,0.58 -0.84,1.09 -1.18,1.71 -0.07,0.13 -0.1,0.19 -0.19,0.34l-1.17 1.91c-0.08,0.14 -0.1,0.15 -0.17,0.28l-0.82 1.49c-0.38,0.82 -0.89,1.62 -1.28,2.45l-0.23 0.49c-0.01,0.02 -0.02,0.03 -0.02,0.05 -0.04,0.06 -0.04,0.06 -0.1,0.16 -0.49,0.97 -0.84,1.98 -1.3,2.96 -1.43,3.05 -2.97,8.58 -3.61,11.82 -0.07,0.32 -0.11,0.53 -0.18,0.8 -0.13,0.49 -0.17,1.21 -0.29,1.75l-0.07 0.24c-0.01,0.02 -0.01,0.04 -0.02,0.05l-0.16 1.37c-0.31,1.88 -0.43,3.74 -0.49,5.62l-0.07 5.98 0.29 3.79c0.22,1.62 0.32,3.26 0.68,4.83 0.27,1.18 0.44,2.42 0.79,3.81l1.09 3.9c0.04,0.17 0.06,0.27 0.11,0.41 0.06,0.15 0.08,0.19 0.14,0.38l0.53 1.58c0,0.01 0.01,0.03 0.01,0.05l0.13 0.39c0.01,0.02 0.01,0.04 0.02,0.05l1.2 3.07c0.54,1.27 1.11,2.55 1.75,3.77l0.12 0.27c0.01,0.02 0.03,0.07 0.04,0.09l4.12 7.04c0.13,0.2 0.27,0.37 0.4,0.58l0.24 0.35c0.01,0.01 0.02,0.02 0.03,0.04l2.78 3.65c0.25,0.32 0.6,0.77 0.93,1.11l1.41 1.61c0.05,0.05 0.07,0.07 0.13,0.13l1.59 1.69c0.17,0.16 0.1,0.05 0.27,0.24 0.25,0.3 0.07,0 0.5,0.55l1.02 0.96c0.08,0.09 0.14,0.15 0.23,0.23 0.14,0.12 0.16,0.12 0.29,0.23 0.55,0.48 1.05,1.02 1.62,1.47l0.28 0.23c0.01,0.01 0.02,0.03 0.03,0.04 0.01,0.01 0.03,0.02 0.04,0.03 0.01,0.01 0.02,0.02 0.03,0.03 0.66,0.6 1.41,1.08 2.07,1.68l1.18 0.86c0.13,0.1 0.15,0.12 0.3,0.22 0.5,0.34 0.97,0.76 1.49,1.08l0.58 0.4c0.17,0.1 0.15,0.1 0.31,0.21 0.13,0.09 0.15,0.09 0.28,0.18l2.83 1.76c0.39,0.24 0.89,0.54 1.31,0.73 0.34,0.15 0.62,0.4 0.97,0.54 0.2,0.09 0.18,0.08 0.34,0.18l1.82 0.93c0.02,0.01 0.16,0.07 0.19,0.09l2.43 1.11c0.14,0.06 0.25,0.1 0.37,0.15 1.46,0.58 2.86,1.19 4.37,1.67l3.46 1.07c1.76,0.47 3.53,0.94 5.32,1.25l3.5 0.56c1.88,0.26 3.69,0.5 5.63,0.5 0.36,0 0.54,0.07 0.91,0.07 3.76,0 5,0 8.8,-0.33 2.88,-0.25 5.85,-0.79 8.63,-1.49l3.15 -0.85c1.33,-0.33 2.56,-0.79 3.8,-1.25 0.17,-0.06 0.16,-0.05 0.35,-0.12 1.1,-0.38 2.19,-0.87 3.26,-1.33l0.87 -0.37c0.1,-0.05 0.12,-0.06 0.18,-0.09l3.69 -1.83c0.13,-0.08 0.16,-0.1 0.33,-0.18l6.55 -4.09c0.11,-0.09 0.15,-0.11 0.27,-0.19 0.2,-0.12 0.13,-0.08 0.3,-0.22l4.78 -3.82c0.87,-0.7 3.52,-3.27 4.11,-3.97l1.1 -1.19c0.07,-0.07 0.05,-0.06 0.12,-0.15l1.22 -1.4c0,-0.01 0.02,-0.03 0.03,-0.04 0,-0.01 0.02,-0.02 0.03,-0.03l0.59 -0.72c0.33,-0.38 1.3,-1.53 1.55,-1.94 0.07,-0.11 0.11,-0.22 0.19,-0.32l3.67 -5.4c0.07,-0.11 0.12,-0.2 0.19,-0.32l0.74 -1.3c0.09,-0.13 0.12,-0.18 0.19,-0.33l1.13 -2.09c0.01,-0.02 0.01,-0.03 0.02,-0.05l1.1 -2.43c0.01,-0.01 0.02,-0.02 0.03,-0.04 0.01,-0.01 0.05,-0.05 0.06,-0.07 0.16,-0.22 0.2,-0.45 0.33,-0.73 0.82,-1.67 2.19,-5.42 2.7,-7.35l0.45 -1.58c0.08,-0.29 0.15,-0.5 0.21,-0.78l0.59 -2.48c0.4,-1.4 1.02,-5.77 1.12,-6.97 0.1,-1.26 0.27,-2.48 0.26,-3.81 0,-0.42 0.06,-0.55 0.07,-0.91 0.12,-4.13 -0.12,-8.39 -0.8,-12.35 -0.19,-1.12 -0.38,-2.36 -0.63,-3.44l-0.29 -1.22c-0.21,-0.7 -0.29,-1.35 -0.5,-1.99 -0.09,-0.26 -0.14,-0.51 -0.21,-0.77 -0.08,-0.25 -0.16,-0.57 -0.23,-0.82 0,-0.01 -0.04,-0.13 -0.04,-0.16l-2.2 -6.14 -2.54 -5.32c-0.01,-0.02 -0.02,-0.03 -0.02,-0.05l-2.61 -4.55c-0.59,-0.99 -1.58,-2.51 -2.31,-3.35 -0.08,-0.09 -0.09,-0.14 -0.17,-0.27l-0.31 -0.42c-0.31,-0.5 -0.84,-1.04 -1.01,-1.29l-3.52 -4.15c-0.18,-0.18 -0.32,-0.31 -0.5,-0.49l-2.13 -2.13c-0.01,-0.01 -0.02,-0.03 -0.03,-0.04l-0.85 -0.78c-0.01,-0.01 -0.03,-0.03 -0.04,-0.04l-2.73 -2.38c-1.52,-1.2 -3.01,-2.37 -4.62,-3.46 -0.21,-0.14 -0.38,-0.23 -0.59,-0.38 -0.22,-0.16 -0.36,-0.26 -0.61,-0.39 -0.24,-0.13 -0.42,-0.26 -0.59,-0.38 -0.79,-0.59 -1.71,-1.03 -2.54,-1.54l-3 -1.6c-0.68,-0.31 -1.33,-0.72 -2.05,-0.97 -0.1,-0.04 -0.27,-0.11 -0.36,-0.16 -0.61,-0.35 -1.44,-0.67 -2.11,-0.91 -0.49,-0.17 -0.95,-0.4 -1.45,-0.59 -0.48,-0.18 -0.95,-0.35 -1.48,-0.55l-1.54 -0.5c-0.06,-0.02 -0.26,-0.08 -0.34,-0.11l-6.83 -1.78c-1.71,-0.28 -3.46,-0.66 -5.21,-0.83 -0.37,-0.04 -0.59,-0.04 -0.95,-0.1 -1.18,-0.16 -2.57,-0.27 -3.77,-0.3 -0.59,-0.02 -1.44,0.06 -2,-0.02 -0.45,-0.07 -1.3,-0.12 -1.81,-0.04l-0.13 0.04c-0.02,0 -0.04,0.01 -0.06,0.02z"/>
   <path class="fil1" d="M53.84 44.49l5.28 3.51c0.91,0.61 1.71,1.11 2.65,1.75 0.33,0.22 2.58,1.74 2.7,1.73l5.08 -3.34c0.92,-0.64 1.68,-1.11 2.52,-1.68l2.57 -1.68c-0.13,-0.31 -8.37,-6.82 -9.28,-7.54 -0.31,-0.26 -1.07,-0.93 -1.35,-1.06l-9.55 7.75c-0.17,0.13 -0.53,0.37 -0.62,0.56z"/>
   <path class="fil1" d="M53.05 63.05c0.11,0.23 0.38,0.33 0.59,0.47 0.24,0.16 0.48,0.32 0.67,0.44 0.83,0.53 9.04,6 9.17,5.98 0.41,-0.21 0.94,-0.63 1.34,-0.9 0.46,-0.3 0.85,-0.59 1.35,-0.94l6.78 -4.7c0.41,-0.29 0.91,-0.66 1.35,-0.92 -0.26,-0.33 -6.46,-4.54 -7.42,-5.25 -0.31,-0.24 -2.28,-1.66 -2.54,-1.74l-11.29 7.56z"/>
   <path class="fil1" d="M40.85 55.79c1.44,0.8 3.03,1.86 4.57,2.76 0.76,0.45 1.54,0.94 2.29,1.39l2.33 1.38 2.73 -1.89c0.98,-0.68 1.8,-1.25 2.75,-1.92l5.13 -3.59c0.25,-0.16 0.22,-0.11 0.31,-0.35 -0.34,-0.14 -4.33,-3.03 -4.86,-3.4 -0.8,-0.55 -1.55,-1.1 -2.41,-1.72 -0.44,-0.31 -0.77,-0.55 -1.23,-0.87 -0.34,-0.24 -0.82,-0.61 -1.24,-0.87 -0.25,0.09 -0.47,0.35 -0.67,0.52l-5.84 5.11c-0.34,0.28 -3.74,3.19 -3.86,3.45z"/>
   <path class="fil1" d="M66.11 71.32c0.11,0.19 1.78,1.48 1.93,1.6l4.44 3.56c0.25,0.2 0.24,0.31 0.58,0.23 0.47,-0.11 0.99,-0.29 1.44,-0.42 1.86,-0.53 3.7,-1.04 5.57,-1.57 0.91,-0.26 1.9,-0.54 2.8,-0.8 0.49,-0.13 0.91,-0.25 1.39,-0.39 0.43,-0.13 1.06,-0.21 1.41,-0.44 -0.45,-1.39 -2.51,-3.98 -3.53,-5.02 -1.13,-1.16 -2.04,-1.99 -3.36,-3 -0.31,-0.23 -1.03,-0.7 -1.23,-0.92 -0.34,0.11 -1.15,0.67 -1.47,0.87l-9.97 6.3z"/>
   <path class="fil1" d="M67.46 53.81c0.2,0.21 0.9,0.65 1.16,0.83 0.42,0.28 0.76,0.5 1.18,0.79 2.43,1.7 5.32,3.5 7.75,5.23 0.26,0.19 0.31,0.25 0.6,0.08l8.62 -5.35c-0.11,-0.24 -6.24,-5.43 -6.99,-6.07 -0.39,-0.33 -0.78,-0.65 -1.17,-1 -0.25,-0.21 -1.03,-0.92 -1.22,-1.01 -0.38,0.14 -6.68,4.35 -7.44,4.83 -0.43,0.28 -2.25,1.42 -2.49,1.67z"/>
   <path class="fil1" d="M80.28 62.59c0.16,0.2 0.38,0.33 0.6,0.51 1.19,0.96 1.93,1.59 3.06,2.71 1.64,1.6 3.95,4.5 4.84,6.69l7.44 -2.27c-0.06,-1.12 -0.69,-3.07 -1.07,-4.02 -1.31,-3.33 -3.7,-6.69 -6.35,-8.91 -0.32,0.04 -6.49,4 -7.46,4.6 -0.29,0.18 -0.86,0.49 -1.06,0.69z"/>
   <path class="fil1" d="M31.55 70l8.12 2.58c1.06,-2.29 2.99,-4.51 4.56,-6.35 0.32,-0.38 0.73,-0.77 1.07,-1.16l2.22 -2.13c-0.54,-0.39 -8.59,-4.99 -8.76,-5.06 -1.14,0.71 -3.57,4.01 -4.33,5.3 -0.94,1.59 -1.72,3.2 -2.31,4.97 -0.16,0.47 -0.52,1.38 -0.57,1.85z"/>
   <path class="fil1" d="M42.86 72.89c0.29,0.22 10.65,3.23 11.39,3.46 0.57,0.18 0.67,-0.17 1.01,-0.47 0.54,-0.46 5.11,-4.58 5.2,-4.76l-9.96 -6.4c-0.43,0.31 -4.95,5.33 -5.7,6.08l-1.94 2.09z"/>
   <path class="fil1" d="M75.29 78.86c0.61,0.97 1.09,1.39 1.61,2.71 0.85,2.14 0.45,2.37 0.71,3.69 2.16,-0.08 6,0.32 7.52,0.23 0.4,-0.02 0.56,-0.33 0.78,-0.54 0.25,-0.24 0.39,-0.39 0.61,-0.69 2.03,-2.72 1.42,-5.54 0.81,-8.46 -0.47,0 -2.38,0.56 -2.98,0.71l-8.9 2.25c-0.16,0.07 -0.1,0.05 -0.16,0.1z"/>
   <path class="fil1" d="M42.82 85.54l6.46 -0.42c0.32,-1.43 0.04,-1.99 0.97,-3.96 0.39,-0.82 0.86,-1.6 1.41,-2.32 0.17,-0.22 0.38,-0.46 0.51,-0.67l-10.83 -2.98c-0.94,2.53 -1.29,5.88 0.02,8.41 0.49,0.93 0.96,1.32 1.46,1.94z"/>
   <path class="fil1" d="M58.2 86.47c0.19,0.26 3.58,2.14 5.23,5.29 0.68,1.3 0.7,1.63 1.1,2.46l0.12 -0.3c0.65,-2.56 1.44,-4.35 3.56,-6.2 0.8,-0.7 1.63,-1.14 1.99,-1.45 -0.18,-0.87 -1.63,-2.49 -2.39,-3.09 -0.75,-0.6 -2.92,-1.86 -3.72,-1.69 -0.99,0.21 -2.63,1.37 -3.42,2.03 -0.77,0.66 -1.94,2.02 -2.47,2.95z"/>
   <path class="fil4" d="M65.69 12.08c1.07,-0.09 2.93,-0.38 2.93,0.87 0.01,1.26 -1.77,1.09 -2.88,1.07l-0.05 -1.94zm-0.14 -3.69c1.08,0.01 2.57,-0.39 2.54,0.89 -0.01,0.57 -0.31,0.79 -0.83,0.88 -0.4,0.06 -1.27,0.08 -1.68,0.06l-0.03 -1.83zm-3.08 -1.83c-0.1,0.36 0.29,8.61 0.35,9.67 1.58,-0.02 6.41,-0.11 7.47,-0.67 0.89,-0.48 1.48,-1.44 1.32,-2.74 -0.14,-1.16 -0.92,-1.74 -2.06,-2.01 0.28,-0.06 0.84,-0.5 1.03,-0.73 0.8,-0.95 0.53,-2.99 -1.13,-3.56 -1.17,-0.39 -5.4,0.02 -6.98,0.04z"/>
   <path class="fil4" d="M50.78 8.11l1.24 5.06c-0.26,-0.07 -0.66,-0.5 -0.86,-0.68 -0.99,-0.89 -2.77,-2.39 -3.61,-3.21 -0.19,-0.19 -0.2,-0.28 -0.49,-0.25l-2.48 0.62c-0.03,0.14 2.17,9.11 2.31,9.37l2.69 -0.64 -1.25 -5.09c0.24,0.12 3.97,3.47 4.49,3.96 0.17,0.15 0.23,0.26 0.53,0.2 0.8,-0.16 1.68,-0.46 2.47,-0.63l-2.32 -9.37 -2.72 0.66z"/>
   <path class="fil4" d="M12.53 42.92c0.05,-0.25 0.48,-1.18 0.64,-1.46 0.24,-0.41 0.59,-0.91 1.31,-0.62 1.19,0.5 0.13,2.02 -0.18,2.87 -0.24,-0.02 -1.56,-0.63 -1.77,-0.79zm-3.04 1.93c0.66,0.25 1.39,0.65 2.14,0.99l5.42 2.52c0.33,0.15 0.81,0.35 1.1,0.52 0.15,-0.11 0.1,-0.06 0.2,-0.27l1.09 -2.41c-0.01,-0.01 -0.04,-0.04 -0.04,-0.03l-1.7 -0.82c-0.35,-0.16 -1.53,-0.64 -1.75,-0.86 0.37,-0.94 0.86,-0.91 1.95,-0.98 0.96,-0.05 1.95,-0.07 2.89,-0.17l1.42 -3.02c-0.44,-0.08 -3.8,-0.04 -4.62,0.51 -0.31,0.21 -0.18,0.22 -0.5,0.35 0.14,-1.57 -0.23,-2.49 -1.43,-3.1 -2.85,-1.44 -3.94,1.82 -4.76,3.61 -0.23,0.5 -1.35,2.77 -1.41,3.16z"/>
   <path class="fil4" d="M103.55 31.84c0.25,-0.27 0.68,-0.53 1.04,-0.8 0.41,-0.31 0.64,-0.48 1.06,-0.78 0.36,-0.27 1.82,-1.41 2.1,-1.53 0.39,0.31 1.11,1.37 1,2.19 -0.1,0.71 -0.94,1.36 -1.44,1.73 -1.14,0.83 -2.12,1.36 -3.13,0.07 -0.17,-0.21 -0.55,-0.68 -0.63,-0.88zm-3.56 -1.14c0.12,0.39 2.91,4.01 3.46,4.52 1.9,1.76 3.94,1.1 5.67,-0.18 1.38,-1.02 3.09,-2.85 1.98,-5.31 -0.38,-0.83 -1.08,-1.66 -1.61,-2.38 -0.28,-0.38 -1.47,-2.1 -1.74,-2.29 -0.34,0.08 -0.68,0.42 -1.01,0.66 -0.79,0.58 -6.44,4.83 -6.75,4.98z"/>
   <path class="fil4" d="M73.74 16.88l7.92 1.97 0.51 -2.12c-0.84,-0.22 -4.51,-1.03 -4.94,-1.29 0.01,-0.32 0.31,-1.59 0.45,-1.79 0.82,0.17 3.96,1.05 4.47,1.06 0.14,-0.53 0.41,-1.38 0.44,-1.9l-4.44 -1.09 0.34 -1.47 4.84 1.17c0.13,-0.3 0.46,-1.64 0.5,-2.02l-7.75 -1.92 -2.34 9.4z"/>
   <path class="fil4" d="M13.97 78.66l0.5 2.65c0.72,-0.04 2.16,-0.53 2.71,1.23 0.4,1.3 -0.74,2.05 -1.52,2.47 -0.83,0.44 -2.19,1.04 -3.06,0.27 -0.32,-0.27 -0.66,-0.74 -0.72,-1.32 -0.08,-0.91 0.39,-1.03 0.57,-1.5l-1.45 -1.75c-0.14,-0.18 -0.06,-0.12 -0.24,-0.24 -0.48,0.28 -1.09,1.45 -1.24,2.07 -0.49,2.06 1.36,5.55 3.93,5.94 2.35,0.37 5.51,-1.4 6.15,-3.86 0.37,-1.43 -0.14,-2 -0.25,-2.8l0.51 0.62 0.75 -0.15c-0.13,-0.4 -1.14,-1.37 -0.43,-1.76 0.84,-0.31 1.12,1.32 1.46,1.92l0.68 -0.3c-0.11,-1.2 -1.6,-4 -3.05,-2.92 -0.54,0.4 -0.47,0.9 -0.39,1.6 -0.56,-0.71 -0.73,-1.34 -1.82,-1.91 -0.91,-0.49 -1.99,-0.57 -3.09,-0.26z"/>
   <path class="fil4" d="M112.5 55.09c-0.04,0.26 0.48,7.81 0.56,8.09 0.58,0.07 1.57,-0.09 2.18,-0.11l-0.37 -5.13 1.9 -0.14 0.33 4.57c0.43,0.07 1.46,-0.06 1.94,-0.1l-0.3 -4.62 1.53 -0.11 0.36 4.97 2.04 -0.13 -0.56 -7.97 -9.61 0.68z"/>
   <path class="fil4" d="M92.17 24.03c0.19,0.27 4,3.79 4.4,4.16 0.29,0.26 1.24,1.25 1.54,1.36 0.28,-0.26 1.35,-1.36 1.42,-1.58 -0.25,-0.3 -0.64,-0.6 -0.9,-0.85l-1.83 -1.71c-0.25,-0.23 -0.74,-0.61 -0.94,-0.92 0.13,-0.29 0.88,-0.99 1.2,-1.35 0.3,0.07 0.63,0.48 0.85,0.7 0.31,0.29 0.55,0.5 0.85,0.79 0.32,0.3 0.55,0.52 0.85,0.79 0.27,0.25 0.57,0.6 0.86,0.79 0.3,-0.13 1.14,-1.15 1.35,-1.39 -0.44,-0.53 -2.87,-2.61 -3.31,-3.15 0.09,-0.29 0.72,-0.8 0.96,-1.12 0.44,0.2 3.17,3.02 3.69,3.35 0.17,-0.11 1.29,-1.28 1.37,-1.51 -0.94,-0.94 -1.94,-1.77 -2.88,-2.69 -0.45,-0.44 -0.97,-0.94 -1.44,-1.37 -0.39,-0.35 -1.18,-1.21 -1.51,-1.32 -0.3,0.26 -0.6,0.63 -0.8,0.85 -0.31,0.32 -0.5,0.53 -0.82,0.88l-4.91 5.29z"/>
   <path class="fil4" d="M119.2 74.16c2.42,0.06 3.23,-1.71 3.45,-3.89 0.12,-1.23 0.05,-2.19 -0.53,-3.03 -0.96,-1.38 -3.17,-1.76 -4.52,0.55 -0.5,0.84 -0.72,1.74 -1.16,2.51 -0.69,1.18 -1.88,0.76 -1.88,-0.43 0,-1.48 0.91,-1.68 1.89,-1.79 0.05,-0.46 0.25,-2.51 0.18,-2.82 -1.18,-0.1 -2.3,0.41 -2.89,1.09 -1.05,1.24 -1.69,4.75 -0.4,6.39 1.25,1.59 3.76,1.94 5.12,-0.69 0.37,-0.71 1.06,-2.59 1.27,-2.85 0.43,-0.53 1.07,-0.14 1.14,0.41 0.08,0.64 -0.18,1.28 -0.53,1.5 -0.92,0.6 -0.88,-0.36 -1,1.05 -0.05,0.64 -0.14,1.32 -0.14,2z"/>
   <path class="fil4" d="M38.37 19.67l-0.05 -0.1c-0.01,-0.02 -0.04,-0.08 -0.05,-0.1 -0.03,-0.1 -0.02,-0.11 -0.04,-0.22 -0.03,-0.17 -0.05,-0.28 -0.08,-0.44 -0.06,-0.29 -0.11,-0.59 -0.17,-0.88 -0.11,-0.56 -0.22,-1.13 -0.31,-1.7 0.22,0.13 2.38,2.33 2.48,2.49 -0.13,0.15 -1.52,0.87 -1.78,0.95zm-3.29 -5.02c0.05,0.94 1.2,10.02 1.32,10.24 0.26,-0.08 2.44,-1.24 2.62,-1.38l-0.28 -1.64 2.96 -1.55c0.44,0.26 0.8,0.93 1.26,1.14 0.62,-0.38 2.27,-1.14 2.67,-1.43 -0.14,-0.29 -5.19,-4.62 -6.18,-5.54 -1.54,-1.44 -1.35,-1.44 -2.04,-1.05 -0.23,0.14 -0.46,0.25 -0.77,0.41 -0.5,0.25 -1.12,0.65 -1.56,0.8z"/>
   <path class="fil4" d="M9.54 71.41c0.5,-0.15 1.13,-0.45 1.65,-0.64l1.28 -0.5c0.4,-0.15 0.4,-0.03 0.43,-0.02l0.11 1.97 -3.47 -0.81zm-2.66 -1.5l0.22 3.29 9.89 2.93 -0.19 -3.04 -1.63 -0.37 -0.23 -3.37 1.53 -0.59 -0.19 -3.04c-0.28,-0.08 -1.98,0.81 -2.35,0.97 -1.91,0.86 -5.34,2.54 -7.05,3.22z"/>
   <path class="fil4" d="M22.1 33.93c-0.29,-0.48 -1.59,-2.6 -1.68,-2.98 0.4,0.1 2.84,1.3 3.08,1.48 -0.11,0.25 -1.21,1.43 -1.4,1.5zm-4.71 -3.6l4.59 9.18c0.2,-0.09 1.88,-1.92 2.04,-2.16 -0.07,-0.49 -0.67,-1.05 -0.73,-1.51 0.31,-0.43 0.74,-0.8 1.09,-1.2 0.32,-0.37 0.79,-0.92 1.13,-1.19 0.48,0.04 1.02,0.51 1.51,0.62 0.19,-0.1 1.93,-1.98 2.06,-2.23 -0.2,-0.18 -0.47,-0.25 -0.76,-0.37l-5.54 -2.27c-0.43,-0.17 -2.96,-1.3 -3.21,-1.22 -0.1,0.03 -2.08,2.17 -2.18,2.35z"/>
   <path class="fil4" d="M110.28 47.25l0.5 2.89c0.62,0.01 2.14,-0.37 2.85,-0.49 1.52,-0.28 0.99,-0.27 2.59,0.41 0.75,0.31 4.32,1.91 4.74,1.99 -0.09,-0.83 -0.33,-1.83 -0.48,-2.72 -0.08,-0.49 -0.04,-0.46 -0.49,-0.62 -0.46,-0.16 -2.92,-1.04 -3.1,-1.2 0.26,-0.36 2.21,-1.93 2.76,-2.49 -0.02,-0.45 -0.46,-2.97 -0.62,-3.2 -1.12,0.99 -2.48,2.45 -3.58,3.48 -1.42,1.33 -0.82,1.1 -2.19,1.36 -0.63,0.12 -2.57,0.39 -2.98,0.59z"/>
   <path class="fil4" d="M9.94 59.58c-0.35,0.31 -2.99,0.82 -3.57,1.18l-0.8 3.18 4.95 -1.78c1.43,-0.49 1.04,-0.61 2.61,-0.23 0.52,0.12 2.32,0.65 2.74,0.64l0.71 -2.85c-0.42,-0.2 -2.21,-0.57 -2.82,-0.72 -1.43,-0.35 -0.95,-0.1 -2.18,-1.43 -0.57,-0.62 -1.08,-1.2 -1.72,-1.88l-1.7 -1.89 -0.53 1.8c-0.08,0.31 -0.15,0.58 -0.23,0.89 -0.13,0.55 -0.08,0.5 0.25,0.81 0.43,0.41 0.8,0.77 1.16,1.14 0.38,0.38 0.8,0.75 1.13,1.14z"/>
   <path class="fil4" d="M83.6 19.77c0.25,0.21 6.42,3.55 6.73,3.63 0.25,-0.55 0.99,-1.76 1.06,-2.06l-2 -1.11c-0.59,-0.33 -1.5,-0.74 -2.02,-1.11 0.07,-0.5 3.27,-5.86 3.39,-6.43 -0.2,-0.16 -2.38,-1.35 -2.62,-1.38 -0.28,0.57 -4.44,8.14 -4.54,8.46z"/>
   <path class="fil4" d="M23.82 22.78c0.12,0.31 5.91,7.56 5.96,7.59 0.27,-0.12 1.23,-0.93 1.47,-1.12l4.5 -3.58c-0.1,-0.23 -1.27,-1.73 -1.45,-1.82 -0.84,0.5 -3.19,2.62 -3.69,2.81 -0.72,-1.07 -4.03,-4.99 -4.45,-5.69 -0.29,0.16 -1.92,1.5 -2.34,1.81z"/>
   <path class="fil1" d="M51.56 85.13l4.43 0.86c1.06,-1.97 1.54,-3.01 3.49,-4.52l1.57 -1.1c-1.6,-0.55 -3.44,-1.06 -5.1,-1.59 -0.99,-0.31 -0.89,-0.35 -1.48,0.31 -0.71,0.79 -1.31,1.62 -1.8,2.65 -0.35,0.72 -1.09,2.6 -1.11,3.39z"/>
   <path class="fil1" d="M57.98 77.15c0.22,0.14 5.08,1.52 5.76,1.72 0.63,0.19 0.79,-0.02 1.38,-0.21 0.46,-0.16 0.96,-0.32 1.42,-0.48 0.8,-0.27 2.17,-0.65 2.83,-0.98l-5.89 -4.38 -5.5 4.33z"/>
   <path class="fil4" d="M75.96 117.74c1.19,-0.38 1.8,1.79 0.61,2.14 -1.25,0.36 -1.92,-1.73 -0.61,-2.14zm-0.77 -2.8c1.09,-0.48 1.63,1.13 0.72,1.53 -0.48,0.2 -0.96,0.03 -1.15,-0.36 -0.22,-0.49 -0.12,-0.94 0.43,-1.17zm2.54 1.76c0.16,-0.46 0.51,-0.54 0.55,-1.26 0.18,-2.75 -4.8,-2.33 -5.49,-0.13 -0.16,0.53 -0.03,1.09 0.23,1.49 0.39,0.58 0.77,0.53 1.04,0.77 -0.96,0.59 -1.09,1.93 -0.33,2.92 0.75,0.96 1.96,0.91 3.21,0.61 1.11,-0.27 2.05,-0.76 2.3,-1.9 0.13,-0.62 -0.01,-1.24 -0.32,-1.68 -0.42,-0.62 -0.6,-0.48 -1.19,-0.82z"/>
   <path class="fil4" d="M60 115.95c1.39,-0.37 1.66,2.15 0.46,2.45 -1.51,0.38 -1.66,-2.13 -0.46,-2.45zm-2.78 4.33c-0.12,0.45 0.38,1.1 0.59,1.3 1.03,0.97 3.25,1.03 4.38,-0.02 0.69,-0.64 0.98,-1.68 1.08,-2.84 0.12,-1.35 -0.09,-2.37 -0.75,-3.16 -0.91,-1.09 -4.3,-1.75 -5.15,0.8 -0.52,1.56 0.48,3.4 2.38,3.31 0.81,-0.03 0.82,-0.3 1.36,-0.53 0,1 -0.64,2.36 -1.54,1.8 -0.24,-0.16 -0.25,-0.35 -0.34,-0.58l-0.08 -0.15 -1.93 0.07z"/>
   <path class="fil4" d="M111.28 78.33c0.24,0.23 3.68,1.96 4.21,2.24 0.56,0.29 4.02,2.15 4.33,2.17 0.15,-0.17 1.24,-2.26 1.33,-2.57 -0.21,-0.21 -3.68,-1.96 -4.21,-2.24 -0.71,-0.36 -1.4,-0.73 -2.12,-1.09 -0.43,-0.22 -1.81,-1.03 -2.25,-1.1 -0.23,0.51 -1.23,2.28 -1.29,2.59z"/>
   <path class="fil4" d="M106.38 39.76c0.1,0.29 1.37,2.39 1.57,2.53 0.37,-0.16 0.68,-0.39 1.05,-0.61 0.38,-0.23 0.67,-0.4 1.02,-0.62 0.64,-0.41 1.37,-0.84 2.04,-1.24 0.89,-0.52 3.44,-2.15 4.09,-2.47 -0.06,-0.25 -1.29,-2.28 -1.51,-2.55 -0.27,0.07 -0.82,0.44 -1.05,0.58l-6.16 3.75c-0.3,0.18 -0.76,0.48 -1.05,0.63z"/>
   <path class="fil4" d="M7.54 51.63l9.24 2.77c0.12,-0.21 0.83,-2.61 0.85,-2.88 -2.15,-0.55 -4.64,-1.39 -6.87,-2.04 -0.65,-0.19 -1.75,-0.6 -2.38,-0.67l-0.84 2.82z"/>
   <path class="fil4" d="M66.77 119.31c0.05,-0.23 1.57,-2.31 1.74,-2.41 0.03,0.37 0.18,1.87 0.13,2.14 0,0.02 -0.01,0.04 -0.01,0.05 0,0.02 -0.01,0.04 -0.02,0.06l-1.84 0.16zm3.36 -4.8c-0.27,-0.06 -1.05,0.03 -1.39,0.06 -0.55,0.04 -0.37,0 -0.84,0.64l-2.5 3.47c-0.25,0.35 -0.49,0.52 -0.46,1.03 0.03,0.46 0.08,0.88 0.11,1.34l3.75 -0.28 0.09 1.34c0.32,0.06 1.42,-0.06 1.81,-0.11l-0.09 -1.37 0.91 -0.07 -0.13 -1.53c-0.02,-0.01 -0.04,-0.02 -0.06,-0.02l-0.17 -0.03c-0.24,-0.01 -0.39,0.06 -0.69,0l-0.34 -4.47z"/>
   <path class="fil1" d="M68.46 80.54c0.45,0.59 3.02,1.73 3.43,5.28 0.32,-0.02 2.82,-0.64 3.04,-0.74 0.14,-1.34 -0.21,-2.49 -0.72,-3.5 -0.43,-0.83 -1.39,-2.06 -1.87,-2.4l-3.88 1.36z"/>
   <path class="fil4" d="M54.93 114.07c-0.17,-0.09 -1.44,-0.38 -1.68,-0.37 -0.81,1.01 -1.53,1.06 -2.92,1.33l-0.36 1.61c1.32,-0.02 1.66,-0.37 2.31,-0.47l-0.98 4.15c-0.01,0.06 -0.06,0.28 -0.07,0.33 -0.01,0.11 0,0.08 0,0.17l1.97 0.56 1.73 -7.31z"/>
   <path class="fil1" d="M37.12 80.11l1.67 -5.52 -6.22 -1.67c0.12,0.41 1.87,3.02 2.26,3.64 0.33,0.55 2.07,3.33 2.29,3.55z"/>
   <path class="fil1" d="M76.17 93.93c0.25,-0.1 1.27,-1.17 1.59,-1.46l4.33 -4.12c0.19,-0.16 0.29,-0.2 0.39,-0.47 -0.86,-0.03 -4.92,-0.39 -5.38,-0.26l-0.93 6.31z"/>
   <path class="fil1" d="M90.05 74.81c-0.02,0.38 1.05,5.09 1.17,5.28l4.36 -6.83 -5.53 1.55z"/>
   <path class="fil0" d="M103.55 31.84c0.08,0.2 0.46,0.67 0.63,0.88 1.01,1.29 1.99,0.76 3.13,-0.07 0.5,-0.37 1.34,-1.02 1.44,-1.73 0.11,-0.82 -0.61,-1.88 -1,-2.19 -0.28,0.12 -1.74,1.26 -2.1,1.53 -0.42,0.3 -0.65,0.47 -1.06,0.78 -0.36,0.27 -0.79,0.53 -1.04,0.8z"/>
   <path class="fil1" d="M45.66 87.86c0.17,0.25 1.79,1.68 2.07,1.9 0.37,0.29 0.7,0.61 1.09,0.94 0.32,0.28 0.78,0.76 1.1,0.94l-0.53 -3.87 -3.73 0.09z"/>
   <path class="fil5" d="M59.96 91.21c-0.12,0.33 -0.11,1.1 -0.09,1.42 0.07,1.07 0.62,2.09 1.36,2.78 0.28,0.25 0.28,0.26 0.5,0.33 0.59,-2.33 0.01,-3.75 -1.72,-4.62l-0.05 0.09z"/>
   <path class="fil1" d="M67.09 95.74c1.28,-0.82 2.12,-2.55 1.71,-4.62 -0.67,0.22 -1.52,1.03 -1.76,1.72 -0.17,0.45 -0.27,0.98 -0.26,1.49l0.31 1.41z"/>
   <path class="fil0" d="M65.74 14.02c1.11,0.02 2.89,0.19 2.88,-1.07 0,-1.25 -1.86,-0.96 -2.93,-0.87l0.05 1.94z"/>
   <path class="fil0" d="M12.53 42.92c0.21,0.16 1.53,0.77 1.77,0.79 0.31,-0.85 1.37,-2.37 0.18,-2.87 -0.72,-0.29 -1.07,0.21 -1.31,0.62 -0.16,0.28 -0.59,1.21 -0.64,1.46z"/>
   <path class="fil0" d="M65.58 10.22c0.41,0.02 1.28,0 1.68,-0.06 0.52,-0.09 0.82,-0.31 0.83,-0.88 0.03,-1.28 -1.46,-0.88 -2.54,-0.89l0.03 1.83z"/>
   <path class="fil4" d="M120.56 82.65c0.21,0.17 1.48,0.85 1.78,0.9l0.91 -1.81c-0.26,-0.14 -1.5,-0.82 -1.8,-0.86l-0.89 1.77z"/>
   <path class="fil0" d="M60 115.95c-1.2,0.32 -1.05,2.83 0.46,2.45 1.2,-0.3 0.93,-2.82 -0.46,-2.45z"/>
   <path class="fil3" d="M115.42 34.85c0.06,0.27 0.76,1.34 1,1.76 0.25,-0.08 1.58,-0.91 1.68,-1.03l-1.02 -1.71c-0.21,0.05 -1.47,0.82 -1.66,0.98z"/>
   <path class="fil6" d="M22.1 33.93c0.19,-0.07 1.29,-1.25 1.4,-1.5 -0.24,-0.18 -2.68,-1.38 -3.08,-1.48 0.09,0.38 1.39,2.5 1.68,2.98z"/>
   <path class="fil0" d="M38.37 19.67c0.26,-0.08 1.65,-0.8 1.78,-0.95 -0.1,-0.16 -2.26,-2.36 -2.48,-2.49 0.09,0.57 0.2,1.14 0.31,1.7 0.06,0.29 0.11,0.59 0.17,0.88 0.03,0.16 0.05,0.27 0.08,0.44 0.02,0.11 0.01,0.12 0.04,0.22 0.01,0.02 0.04,0.08 0.05,0.1l0.05 0.1z"/>
   <path class="fil0" d="M9.54 71.41l3.47 0.81 -0.11 -1.97c-0.03,-0.01 -0.03,-0.13 -0.43,0.02l-1.28 0.5c-0.52,0.19 -1.15,0.49 -1.65,0.64z"/>
   <path class="fil0" d="M75.96 117.74c-1.31,0.41 -0.64,2.5 0.61,2.14 1.19,-0.35 0.58,-2.52 -0.61,-2.14z"/>
   <path class="fil0" d="M75.19 114.94c-0.55,0.23 -0.65,0.68 -0.43,1.17 0.19,0.39 0.67,0.56 1.15,0.36 0.91,-0.4 0.37,-2.01 -0.72,-1.53z"/>
   <path class="fil0" d="M68.61 119.15c0.01,-0.02 0.02,-0.04 0.02,-0.06 0,-0.01 0.01,-0.03 0.01,-0.05 0.05,-0.27 -0.1,-1.77 -0.13,-2.14 -0.17,0.1 -1.69,2.18 -1.74,2.41l1.84 -0.16z"/>
  </g>
 </g>
</svg>
