<!-- anatolia-icons | https://github.com/fikretsefa/anatolia-icons -->
<svg width="48" height="48" preserveAspectRatio="xMidYMid meet" data-anatolia-icons="https://github.com/fikretsefa/anatolia-icons" xmlns="http://www.w3.org/2000/svg" id="karamursel-bel__katman_2" viewBox="0 0 476.06 279.54"><defs><style>.karamursel-bel__cls-2{stroke-width:0;fill:#ffec00}</style></defs><g id="karamursel-bel__katman_1"><path d="M157.72 80.27h10.92v13.56l6.11-13.56h11.65l-8.07 16.52 8.35 22.69h-12.16l-4.14-12.49-1.74 3.19v9.3h-10.92zm39.9-.11h12.32l10.25 39.33h-11.26l-1.23-5.99h-8.07l-1.23 5.99h-11.03zm8.29 24.81-2.24-11.03-2.24 11.03zm18.05-24.7h12.66c5.04 0 9.02 1.28 11.54 3.81 2.19 2.24 3.42 5.27 3.42 9.41v.5c0 5.66-2.35 8.86-5.54 10.93l6.38 14.57h-11.99l-4.7-11.65h-.95v11.65h-10.81V80.28Zm12.71 19.16c2.24 0 3.81-1.57 3.81-4.7v-.45c0-3.14-1.57-4.65-3.75-4.65h-1.96v9.8zm27.24-19.27h12.32l10.25 39.33h-11.26l-1.23-5.99h-8.07l-1.23 5.99h-11.03zm8.29 24.81-2.24-11.03-2.24 11.03zm18.05-24.7h10.7l5.71 12.1 5.77-12.1h10.7v39.21h-10.64v-18.6l-5.77 11.71h-.11l-5.77-11.71v18.6h-10.59zm38.39 25.49V80.27h11.03v25.82c0 2.91 1.28 4.2 3.19 4.2s3.2-1.23 3.2-4.09V80.26h10.98v25.32c0 10.31-5.94 14.62-14.28 14.62s-14.12-4.26-14.12-14.45Zm5.32-33.95h8.01v6.95h-8.01zm9.68 0h8.01v6.95h-8.01zm18.95 8.46h12.66c5.05 0 9.02 1.28 11.55 3.81 2.18 2.24 3.42 5.27 3.42 9.41v.5c0 5.66-2.35 8.86-5.55 10.93l6.39 14.57h-11.99l-4.7-11.65h-.96v11.65h-10.82V80.28Zm12.72 19.16c2.24 0 3.81-1.57 3.81-4.7v-.45c0-3.14-1.57-4.65-3.75-4.65h-1.96v9.8h1.91Zm17.54 15.8 4.54-9.08c3.14 2.52 6.56 4.2 9.3 4.2 1.96 0 2.69-1.01 2.69-2.07v-.06c0-1.29-1.18-2.02-4.09-3.31-6.72-2.97-10.92-6.05-10.92-12.66v-.28c0-7.39 5.38-12.33 13.39-12.33 4.09 0 8.18.9 12.67 4.2l-4.82 8.68c-1.91-1.34-4.82-3.13-7.73-3.13-1.62 0-2.46.9-2.46 1.9v.11c0 1.24 1.28 2.02 4.82 3.64 5.77 2.63 10.2 5.94 10.2 12.32v.28c0 7.45-5.49 12.43-13.28 12.43-5.09 0-9.75-1.4-14.28-4.87Zm32.45-34.96h23.42v9.86h-12.55v4.99h11.49v9.3h-11.49v5.21h12.78v9.86h-23.64V80.28Zm28.8 0h10.93v29.18h11.03v10.03H454.1zm-293.98 87.65v-38.59h11.61c2.89 0 5.35 1.02 7.39 3.07 2.06 2.06 3.09 4.53 3.09 7.42q0 4.815-3.69 7.98c1.83.86 3.29 2.13 4.38 3.82 1.11 1.74 1.66 3.64 1.66 5.69q0 4.41-3.09 7.5-3.12 3.12-7.47 3.12h-13.9Zm3.55-21.15h8.06c1.9 0 3.53-.68 4.89-2.05 1.36-1.36 2.05-3 2.05-4.91s-.69-3.55-2.05-4.89q-2.04-2.04-4.89-2.04h-8.06zm0 17.6h10.35c1.94 0 3.59-.69 4.97-2.07 1.36-1.38 2.04-3.04 2.04-5s-.68-3.56-2.04-4.94c-1.39-1.37-3.04-2.05-4.97-2.05h-10.35v14.05Zm54.81-35.05v3.55h-16.15v13.92h12.76v3.54h-12.76v14.03h16.15v3.55h-19.7v-38.59zm17.67 0v35.04h17.93v3.55h-21.47v-38.59zm51.85 0v3.55h-16.14v13.92h12.76v3.54h-12.76v14.03H288v3.55h-19.7v-38.59zm14.05 38.6v-38.59h9.49q7.98 0 13.65 5.67 5.64 5.64 5.64 13.62c0 7.98-1.87 9.86-5.64 13.63q-5.67 5.67-13.65 5.67zm3.52-3.52h5.97c4.35 0 8.07-1.54 11.15-4.62 3.09-3.08 4.63-6.8 4.63-11.15s-1.54-8.07-4.63-11.15c-3.08-3.08-6.8-4.62-11.15-4.62h-5.97v31.55Zm81.3-35.08-11.85 20.13v18.46h-3.54v-18.46l-11.86-20.13h4.12l9.51 16.18 9.55-16.18h4.08Zm33.14 0v3.55h-16.14v13.92h12.76v3.54h-12.76v14.03h16.14v3.55h-19.69v-38.59zm23.92 38.95c-2.49-.11-4.78-.76-6.85-1.96-2.37-1.36-3.97-3.18-4.82-5.46l3.33-1.21c.58 1.54 1.74 2.78 3.5 3.73 1.54.82 3.2 1.28 5 1.37 2.73.11 5.03-.58 6.88-2.07 1.65-1.32 2.52-2.88 2.61-4.67.14-3.37-2.94-5.94-9.25-7.72-4.55-1.27-7.8-3.04-9.76-5.32-1.49-1.74-2.18-3.69-2.09-5.86.16-3.67 1.72-6.41 4.67-8.22 2.35-1.43 5.19-2.07 8.52-1.91 4.01.18 7.21 1.56 9.62 4.14l-2.61 2.42c-1.74-1.88-4.12-2.89-7.17-3.04-2.62-.11-4.78.36-6.5 1.4-1.89 1.16-2.87 2.96-2.98 5.37-.15 3.29 2.94 5.83 9.24 7.61 4.55 1.27 7.8 3.05 9.76 5.35 1.49 1.75 2.18 3.72 2.09 5.91-.13 2.88-1.45 5.32-3.92 7.31-2.36 1.9-5.23 2.85-8.58 2.85-.23 0-.46-.02-.69-.03Zm-100.21-39.13h3.57v3.22h-3.57zm0 6.67h3.57v32.11h-3.57zm126.13-6.67h3.57v3.22h-3.57zm0 6.67h3.57v32.11h-3.57zM287.58 30.32h-8.18v-9.5h28.58v9.5h-8.18v27.65h-12.23V30.32Zm18.23 17.14h12.36v10.51h-12.36zm14.11-7.11v-1.7c0-12.21 8.36-18.47 17.98-18.47 4.93 0 8.74 1.38 12.04 3.93l-5.93 8.39c-1-.95-2.68-2.39-5.31-2.39-3.5 0-6.37 2.44-6.37 9.02v.42c0 7.01 3.25 9.13 6.49 9.13 2.75 0 4.37-1.49 5.43-2.44l5.81 8.07c-2.69 2.18-6.74 4.3-12.61 4.3-9.61 0-17.54-6.16-17.54-18.26Zm30.9 7.11h12.36v10.51h-12.36zM51.76 244.89c10.14 11.14 20.01 22.69 29.47 34.65 43.2-25.97 108.96-57.93 189.83-73.3 0 0-116.6-4.67-219.3 38.66" style="fill:#202967; stroke-width:0"/><path d="M28.05 20.94C59.16 92.26 46.29 152 39.99 172.82c14.19-2.77 28.56-4.52 42.83-5.46C84.56 97.58 28.05 20.94 28.05 20.94" class="karamursel-bel__cls-2"/><path d="M151.25 168.34C134.77 78.67 24.27 0 24.27 0c60.28 70.35 72.29 140.91 74.68 166.64 17.94-.45 35.56.26 52.3 1.71" class="karamursel-bel__cls-2"/><path d="M273.45 202.63S120.02 150.47 0 193.33c13.82 12.56 27.51 25.85 40.81 39.82 39.03-14.61 126.53-40.72 232.64-30.52" style="stroke-width:0; fill:#0080c8"/></g></svg>
